<?xml version="1.0" encoding="utf-8"?>
<!-- Generator: Adobe Illustrator 21.1.0, SVG Export Plug-In . SVG Version: 6.00 Build 0)  -->
<svg version="1.1" id="Layer_1" xmlns="http://www.w3.org/2000/svg" xmlns:xlink="http://www.w3.org/1999/xlink" x="0px" y="0px"
	 viewBox="0 0 80 40" style="enable-background:new 0 0 80 40;" xml:space="preserve">
<style type="text/css">
	.st0{fill:#163056;}
	.st1{fill:#F1CEC3;}
	.st2{fill:none;}
</style>
<title>Artboard 1</title>
<path class="st0" d="M65.9,1l0-0.2l-0.2,0c-2.1-0.5-4.3-0.6-6.4-0.4V0h-0.7v0.4c-1.9,0.2-3.7,0.7-5.5,1.5L52.1,0h-0.7l1,2.1
	c-2.1,1-4.1,2.3-5.8,4l-3.5-3.5c-0.1-0.1-0.3-0.1-0.5,0c-0.1,0.1-0.1,0.3,0,0.5l3.5,3.5c-1.6,1.7-2.9,3.5-3.9,5.6l-4-2
	c-0.2-0.1-0.4,0-0.5,0.2c-0.1,0.2,0,0.4,0.2,0.4l4,2c-0.8,1.8-1.3,3.6-1.5,5.5h-4.2c-0.2,0-0.3,0.1-0.3,0.3c0,0.2,0.2,0.3,0.3,0.3
	h4.2c-0.2,2.2-0.1,4.4,0.4,6.6l0,0.2l0.2,0c1.5,0.3,3,0.5,4.5,0.5c5.5,0,10.7-2.1,14.7-6.1C65.3,15.1,67.4,8,65.9,1z M59.8,19.7
	c-4.8,4.9-11.7,6.9-18.4,5.5C40,18.5,42,11.6,46.9,6.8C51.7,2,58.6-0.1,65.3,1.3C66.7,8,64.6,14.9,59.8,19.7z"/>
<ellipse transform="matrix(0.7071 -0.7071 0.7071 0.7071 6.2145 41.6455)" class="st1" cx="53.4" cy="13.3" rx="7.5" ry="7.5"/>
<ellipse transform="matrix(0.7071 -0.7071 0.7071 0.7071 6.2145 41.6455)" class="st0" cx="53.4" cy="13.3" rx="4.8" ry="4.8"/>
<path class="st0" d="M24.8,21.1l0-0.2l-0.2,0c-2.2-0.5-4.3-0.6-6.4-0.4v-4.3c0-0.2-0.2-0.3-0.3-0.3c-0.2,0-0.3,0.2-0.3,0.3v4.4
	c-1.9,0.2-3.7,0.7-5.5,1.5l-2-4.1c-0.1-0.2-0.3-0.2-0.4-0.1c-0.2,0.1-0.2,0.3-0.2,0.4l2,4.1c-2.1,1-4.1,2.3-5.8,4l-3.5-3.5
	c-0.1-0.1-0.3-0.1-0.5,0c-0.1,0.1-0.1,0.3,0,0.5l3.5,3.5c-1.6,1.7-2.9,3.6-3.9,5.6l-1.3-0.6v0.8l1,0.5c-0.4,1-0.8,2-1,3V40h0
	c0.3-4.9,2.3-9.5,5.9-13c4.8-4.8,11.7-6.9,18.4-5.5c1.4,6.7-0.6,13.6-5.5,18.4c0,0-0.1,0.1-0.1,0.1h0.9C24.4,35,26.4,28,24.8,21.1z"
	/>
<path class="st1" d="M17.7,38.8c-0.5,0.5-1,0.9-1.6,1.2H8.6C8,39.7,7.5,39.3,7,38.8c-2.9-2.9-2.9-7.7,0-10.6c2.9-2.9,7.7-2.9,10.6,0
	S20.6,35.8,17.7,38.8z"/>
<ellipse transform="matrix(0.7071 -0.7071 0.7071 0.7071 -20.0464 18.5414)" class="st0" cx="12.4" cy="33.5" rx="4.8" ry="4.8"/>
<path class="st0" d="M0,3.5c0.1,0.7,0.2,1.4,0.3,2.1l0.1,0.2l0.2,0.1c1.5,0.3,3,0.5,4.5,0.5c5.5,0,10.7-2.1,14.7-6.1
	C19.9,0.2,20,0.1,20,0h-0.9C14.3,4.7,7.5,6.6,1,5.2C0.6,3.5,0.5,1.7,0.6,0H0V3.5z"/>
<path class="st1" d="M16.5,0c-2.2,1.2-4.9,1.2-7.1,0H16.5z"/>
<line class="st2" x1="0" y1="3.5" x2="0" y2="0"/>
</svg>
